<mxfile host="app.diagrams.net" agent="Mozilla/5.0 (Windows NT 10.0; Win64; x64) AppleWebKit/537.36 (KHTML, like Gecko) Chrome/140.0.0.0 Safari/537.36 Edg/140.0.0.0" version="28.2.0">
  <diagram name="Page-1" id="yUf-vztI2cLMn1IxQAQ2">
    <mxGraphModel dx="1359" dy="756" grid="1" gridSize="10" guides="1" tooltips="1" connect="1" arrows="1" fold="1" page="1" pageScale="1" pageWidth="1169" pageHeight="827" math="0" shadow="0">
      <root>
        <mxCell id="0" />
        <mxCell id="1" parent="0" />
        <mxCell id="AHkwNyY9whoKdCYTfrnO-126" value="&lt;span style=&quot;font-size: 10px;&quot;&gt;digitGapMinMs&lt;/span&gt;" style="text;html=1;align=center;verticalAlign=middle;resizable=0;points=[];autosize=1;strokeColor=none;fillColor=none;" vertex="1" parent="1">
          <mxGeometry x="730.3" y="560" width="90" height="30" as="geometry" />
        </mxCell>
        <mxCell id="AHkwNyY9whoKdCYTfrnO-11" value="" style="endArrow=none;html=1;rounded=0;exitX=-0.053;exitY=0.357;exitDx=0;exitDy=0;exitPerimeter=0;" edge="1" parent="1">
          <mxGeometry width="50" height="50" relative="1" as="geometry">
            <mxPoint x="70.00000000000004" y="210.70999999999992" as="sourcePoint" />
            <mxPoint x="325.3" y="210" as="targetPoint" />
          </mxGeometry>
        </mxCell>
        <mxCell id="AHkwNyY9whoKdCYTfrnO-33" value="" style="endArrow=none;html=1;rounded=0;dashed=1;dashPattern=8 8;strokeColor=#999999;" edge="1" parent="1">
          <mxGeometry width="50" height="50" relative="1" as="geometry">
            <mxPoint x="325.3" y="550" as="sourcePoint" />
            <mxPoint x="325.3" y="450" as="targetPoint" />
          </mxGeometry>
        </mxCell>
        <mxCell id="AHkwNyY9whoKdCYTfrnO-34" value="" style="endArrow=none;html=1;rounded=0;dashed=1;dashPattern=8 8;strokeColor=#999999;" edge="1" parent="1">
          <mxGeometry width="50" height="50" relative="1" as="geometry">
            <mxPoint x="345.3" y="490" as="sourcePoint" />
            <mxPoint x="345.3" y="450" as="targetPoint" />
          </mxGeometry>
        </mxCell>
        <mxCell id="AHkwNyY9whoKdCYTfrnO-47" value="" style="shape=curlyBracket;whiteSpace=wrap;html=1;rounded=1;labelPosition=left;verticalLabelPosition=middle;align=right;verticalAlign=middle;rotation=-90;" vertex="1" parent="1">
          <mxGeometry x="350.3" y="490" width="10" height="20" as="geometry" />
        </mxCell>
        <mxCell id="AHkwNyY9whoKdCYTfrnO-48" value="&lt;span style=&quot;font-size: 10px;&quot;&gt;pulseGlitchMs&lt;/span&gt;" style="text;html=1;align=center;verticalAlign=middle;resizable=0;points=[];autosize=1;strokeColor=none;fillColor=none;" vertex="1" parent="1">
          <mxGeometry x="310.3" y="500" width="90" height="30" as="geometry" />
        </mxCell>
        <mxCell id="AHkwNyY9whoKdCYTfrnO-61" value="" style="group" vertex="1" connectable="0" parent="1">
          <mxGeometry x="330.3" y="210" width="20" height="240" as="geometry" />
        </mxCell>
        <mxCell id="AHkwNyY9whoKdCYTfrnO-57" value="" style="endArrow=none;html=1;rounded=0;" edge="1" parent="AHkwNyY9whoKdCYTfrnO-61">
          <mxGeometry width="50" height="50" relative="1" as="geometry">
            <mxPoint x="-5" y="240" as="sourcePoint" />
            <mxPoint x="5" as="targetPoint" />
          </mxGeometry>
        </mxCell>
        <mxCell id="AHkwNyY9whoKdCYTfrnO-58" value="" style="endArrow=none;html=1;rounded=0;" edge="1" parent="AHkwNyY9whoKdCYTfrnO-61">
          <mxGeometry width="50" height="50" relative="1" as="geometry">
            <mxPoint x="5" y="240" as="sourcePoint" />
            <mxPoint x="5" as="targetPoint" />
          </mxGeometry>
        </mxCell>
        <mxCell id="AHkwNyY9whoKdCYTfrnO-59" value="" style="endArrow=none;html=1;rounded=0;" edge="1" parent="AHkwNyY9whoKdCYTfrnO-61">
          <mxGeometry width="50" height="50" relative="1" as="geometry">
            <mxPoint x="5" y="240" as="sourcePoint" />
            <mxPoint x="15" as="targetPoint" />
          </mxGeometry>
        </mxCell>
        <mxCell id="AHkwNyY9whoKdCYTfrnO-60" value="" style="endArrow=none;html=1;rounded=0;" edge="1" parent="AHkwNyY9whoKdCYTfrnO-61">
          <mxGeometry width="50" height="50" relative="1" as="geometry">
            <mxPoint x="15" y="240" as="sourcePoint" />
            <mxPoint x="15" as="targetPoint" />
          </mxGeometry>
        </mxCell>
        <mxCell id="AHkwNyY9whoKdCYTfrnO-62" value="" style="endArrow=none;html=1;rounded=0;" edge="1" parent="AHkwNyY9whoKdCYTfrnO-61">
          <mxGeometry width="50" height="50" relative="1" as="geometry">
            <mxPoint x="-5" y="240" as="sourcePoint" />
            <mxPoint x="-5" as="targetPoint" />
          </mxGeometry>
        </mxCell>
        <mxCell id="AHkwNyY9whoKdCYTfrnO-63" value="" style="endArrow=none;html=1;rounded=0;" edge="1" parent="1">
          <mxGeometry width="50" height="50" relative="1" as="geometry">
            <mxPoint x="345.3" y="450" as="sourcePoint" />
            <mxPoint x="445.3" y="450" as="targetPoint" />
          </mxGeometry>
        </mxCell>
        <mxCell id="AHkwNyY9whoKdCYTfrnO-64" value="" style="group" vertex="1" connectable="0" parent="1">
          <mxGeometry x="450.3" y="210" width="20" height="240" as="geometry" />
        </mxCell>
        <mxCell id="AHkwNyY9whoKdCYTfrnO-65" value="" style="endArrow=none;html=1;rounded=0;" edge="1" parent="AHkwNyY9whoKdCYTfrnO-64">
          <mxGeometry width="50" height="50" relative="1" as="geometry">
            <mxPoint x="-5" y="240" as="sourcePoint" />
            <mxPoint x="15" as="targetPoint" />
          </mxGeometry>
        </mxCell>
        <mxCell id="AHkwNyY9whoKdCYTfrnO-66" value="" style="endArrow=none;html=1;rounded=0;" edge="1" parent="AHkwNyY9whoKdCYTfrnO-64">
          <mxGeometry width="50" height="50" relative="1" as="geometry">
            <mxPoint x="5" y="240" as="sourcePoint" />
            <mxPoint x="15" as="targetPoint" />
          </mxGeometry>
        </mxCell>
        <mxCell id="AHkwNyY9whoKdCYTfrnO-67" value="" style="endArrow=none;html=1;rounded=0;" edge="1" parent="AHkwNyY9whoKdCYTfrnO-64">
          <mxGeometry width="50" height="50" relative="1" as="geometry">
            <mxPoint x="5" y="240" as="sourcePoint" />
            <mxPoint x="25" as="targetPoint" />
          </mxGeometry>
        </mxCell>
        <mxCell id="AHkwNyY9whoKdCYTfrnO-73" value="" style="endArrow=none;html=1;rounded=0;" edge="1" parent="1">
          <mxGeometry width="50" height="50" relative="1" as="geometry">
            <mxPoint x="475.3" y="210" as="sourcePoint" />
            <mxPoint x="575.3" y="210" as="targetPoint" />
          </mxGeometry>
        </mxCell>
        <mxCell id="AHkwNyY9whoKdCYTfrnO-78" value="" style="group" vertex="1" connectable="0" parent="1">
          <mxGeometry x="570.3" y="210" width="20" height="240" as="geometry" />
        </mxCell>
        <mxCell id="AHkwNyY9whoKdCYTfrnO-79" value="" style="endArrow=none;html=1;rounded=0;" edge="1" parent="AHkwNyY9whoKdCYTfrnO-78">
          <mxGeometry width="50" height="50" relative="1" as="geometry">
            <mxPoint x="5" y="240" as="sourcePoint" />
            <mxPoint x="15" as="targetPoint" />
          </mxGeometry>
        </mxCell>
        <mxCell id="AHkwNyY9whoKdCYTfrnO-80" value="" style="endArrow=none;html=1;rounded=0;" edge="1" parent="AHkwNyY9whoKdCYTfrnO-78">
          <mxGeometry width="50" height="50" relative="1" as="geometry">
            <mxPoint x="15" y="240" as="sourcePoint" />
            <mxPoint x="15" as="targetPoint" />
          </mxGeometry>
        </mxCell>
        <mxCell id="AHkwNyY9whoKdCYTfrnO-81" value="" style="endArrow=none;html=1;rounded=0;" edge="1" parent="AHkwNyY9whoKdCYTfrnO-78">
          <mxGeometry width="50" height="50" relative="1" as="geometry">
            <mxPoint x="15" y="240" as="sourcePoint" />
            <mxPoint x="25" as="targetPoint" />
          </mxGeometry>
        </mxCell>
        <mxCell id="AHkwNyY9whoKdCYTfrnO-82" value="" style="endArrow=none;html=1;rounded=0;" edge="1" parent="AHkwNyY9whoKdCYTfrnO-78">
          <mxGeometry width="50" height="50" relative="1" as="geometry">
            <mxPoint x="25" y="240" as="sourcePoint" />
            <mxPoint x="25" as="targetPoint" />
          </mxGeometry>
        </mxCell>
        <mxCell id="AHkwNyY9whoKdCYTfrnO-83" value="" style="endArrow=none;html=1;rounded=0;" edge="1" parent="AHkwNyY9whoKdCYTfrnO-78">
          <mxGeometry width="50" height="50" relative="1" as="geometry">
            <mxPoint x="5" y="240" as="sourcePoint" />
            <mxPoint x="5" as="targetPoint" />
          </mxGeometry>
        </mxCell>
        <mxCell id="AHkwNyY9whoKdCYTfrnO-84" value="" style="endArrow=none;html=1;rounded=0;" edge="1" parent="1">
          <mxGeometry width="50" height="50" relative="1" as="geometry">
            <mxPoint x="595.3" y="450" as="sourcePoint" />
            <mxPoint x="690.3" y="450.63" as="targetPoint" />
          </mxGeometry>
        </mxCell>
        <mxCell id="AHkwNyY9whoKdCYTfrnO-89" value="" style="endArrow=none;html=1;rounded=0;" edge="1" parent="1">
          <mxGeometry width="50" height="50" relative="1" as="geometry">
            <mxPoint x="705.3" y="210" as="sourcePoint" />
            <mxPoint x="940.3" y="210" as="targetPoint" />
          </mxGeometry>
        </mxCell>
        <mxCell id="AHkwNyY9whoKdCYTfrnO-91" value="" style="shape=curlyBracket;whiteSpace=wrap;html=1;rounded=1;labelPosition=left;verticalLabelPosition=middle;align=right;verticalAlign=middle;rotation=-90;" vertex="1" parent="1">
          <mxGeometry x="362.8" y="517.5" width="15" height="90" as="geometry" />
        </mxCell>
        <mxCell id="AHkwNyY9whoKdCYTfrnO-92" value="&lt;span style=&quot;font-size: 10px;&quot;&gt;DebounceMs&lt;/span&gt;" style="text;html=1;align=center;verticalAlign=middle;resizable=0;points=[];autosize=1;strokeColor=none;fillColor=none;" vertex="1" parent="1">
          <mxGeometry x="330.3" y="560" width="80" height="30" as="geometry" />
        </mxCell>
        <mxCell id="AHkwNyY9whoKdCYTfrnO-93" value="" style="endArrow=none;html=1;rounded=0;dashed=1;dashPattern=8 8;strokeColor=#999999;" edge="1" parent="1">
          <mxGeometry width="50" height="50" relative="1" as="geometry">
            <mxPoint x="365.3" y="490" as="sourcePoint" />
            <mxPoint x="365.3" y="450" as="targetPoint" />
          </mxGeometry>
        </mxCell>
        <mxCell id="AHkwNyY9whoKdCYTfrnO-94" value="" style="endArrow=none;html=1;rounded=0;dashed=1;dashPattern=8 8;strokeColor=#999999;" edge="1" parent="1">
          <mxGeometry width="50" height="50" relative="1" as="geometry">
            <mxPoint x="415.3" y="550" as="sourcePoint" />
            <mxPoint x="415.3" y="450" as="targetPoint" />
          </mxGeometry>
        </mxCell>
        <mxCell id="AHkwNyY9whoKdCYTfrnO-95" value="" style="endArrow=none;html=1;rounded=0;dashed=1;dashPattern=8 8;strokeColor=#999999;" edge="1" parent="1">
          <mxGeometry width="50" height="50" relative="1" as="geometry">
            <mxPoint x="595.3" y="490" as="sourcePoint" />
            <mxPoint x="595.3" y="450" as="targetPoint" />
          </mxGeometry>
        </mxCell>
        <mxCell id="AHkwNyY9whoKdCYTfrnO-97" value="&lt;span style=&quot;font-size: 10px;&quot;&gt;pulseGlitchMs&lt;/span&gt;" style="text;html=1;align=center;verticalAlign=middle;resizable=0;points=[];autosize=1;strokeColor=none;fillColor=none;" vertex="1" parent="1">
          <mxGeometry x="560.3" y="500" width="90" height="30" as="geometry" />
        </mxCell>
        <mxCell id="AHkwNyY9whoKdCYTfrnO-98" value="" style="endArrow=none;html=1;rounded=0;dashed=1;dashPattern=8 8;strokeColor=#999999;" edge="1" parent="1">
          <mxGeometry width="50" height="50" relative="1" as="geometry">
            <mxPoint x="615.3" y="490" as="sourcePoint" />
            <mxPoint x="615.3" y="450" as="targetPoint" />
          </mxGeometry>
        </mxCell>
        <mxCell id="AHkwNyY9whoKdCYTfrnO-100" value="" style="endArrow=none;html=1;rounded=0;dashed=1;dashPattern=8 8;strokeColor=#999999;" edge="1" parent="1">
          <mxGeometry width="50" height="50" relative="1" as="geometry">
            <mxPoint x="475.3" y="490" as="sourcePoint" />
            <mxPoint x="475.3" y="210" as="targetPoint" />
          </mxGeometry>
        </mxCell>
        <mxCell id="AHkwNyY9whoKdCYTfrnO-102" value="&lt;span style=&quot;font-size: 10px;&quot;&gt;pulseGlitchMs&lt;/span&gt;" style="text;html=1;align=center;verticalAlign=middle;resizable=0;points=[];autosize=1;strokeColor=none;fillColor=none;" vertex="1" parent="1">
          <mxGeometry x="440.3" y="500" width="90" height="30" as="geometry" />
        </mxCell>
        <mxCell id="AHkwNyY9whoKdCYTfrnO-103" value="" style="endArrow=none;html=1;rounded=0;dashed=1;dashPattern=8 8;strokeColor=#999999;" edge="1" parent="1">
          <mxGeometry width="50" height="50" relative="1" as="geometry">
            <mxPoint x="495.06" y="490" as="sourcePoint" />
            <mxPoint x="495.3" y="210" as="targetPoint" />
          </mxGeometry>
        </mxCell>
        <mxCell id="AHkwNyY9whoKdCYTfrnO-105" value="" style="shape=curlyBracket;whiteSpace=wrap;html=1;rounded=1;labelPosition=left;verticalLabelPosition=middle;align=right;verticalAlign=middle;direction=north;" vertex="1" parent="1">
          <mxGeometry x="475.3" y="500" width="20" height="10" as="geometry" />
        </mxCell>
        <mxCell id="AHkwNyY9whoKdCYTfrnO-106" value="" style="shape=curlyBracket;whiteSpace=wrap;html=1;rounded=1;labelPosition=left;verticalLabelPosition=middle;align=right;verticalAlign=middle;direction=north;" vertex="1" parent="1">
          <mxGeometry x="595.3" y="500" width="20" height="10" as="geometry" />
        </mxCell>
        <mxCell id="AHkwNyY9whoKdCYTfrnO-116" value="" style="endArrow=none;html=1;rounded=0;dashed=1;dashPattern=8 8;strokeColor=#999999;" edge="1" parent="1">
          <mxGeometry width="50" height="50" relative="1" as="geometry">
            <mxPoint x="575.3" y="550" as="sourcePoint" />
            <mxPoint x="575.3" y="450" as="targetPoint" />
          </mxGeometry>
        </mxCell>
        <mxCell id="AHkwNyY9whoKdCYTfrnO-117" value="" style="shape=curlyBracket;whiteSpace=wrap;html=1;rounded=1;labelPosition=left;verticalLabelPosition=middle;align=right;verticalAlign=middle;rotation=-90;" vertex="1" parent="1">
          <mxGeometry x="612.8" y="517.5" width="15" height="90" as="geometry" />
        </mxCell>
        <mxCell id="AHkwNyY9whoKdCYTfrnO-118" value="&lt;span style=&quot;font-size: 10px;&quot;&gt;DebounceMs&lt;/span&gt;" style="text;html=1;align=center;verticalAlign=middle;resizable=0;points=[];autosize=1;strokeColor=none;fillColor=none;" vertex="1" parent="1">
          <mxGeometry x="580.3" y="560" width="80" height="30" as="geometry" />
        </mxCell>
        <mxCell id="AHkwNyY9whoKdCYTfrnO-119" value="" style="endArrow=none;html=1;rounded=0;dashed=1;dashPattern=8 8;strokeColor=#999999;" edge="1" parent="1">
          <mxGeometry width="50" height="50" relative="1" as="geometry">
            <mxPoint x="665.3" y="550" as="sourcePoint" />
            <mxPoint x="665.3" y="450" as="targetPoint" />
          </mxGeometry>
        </mxCell>
        <mxCell id="AHkwNyY9whoKdCYTfrnO-86" value="" style="endArrow=none;html=1;rounded=0;" edge="1" parent="1">
          <mxGeometry width="50" height="50" relative="1" as="geometry">
            <mxPoint x="690.3" y="450" as="sourcePoint" />
            <mxPoint x="695.3" y="210" as="targetPoint" />
          </mxGeometry>
        </mxCell>
        <mxCell id="AHkwNyY9whoKdCYTfrnO-87" value="" style="endArrow=none;html=1;rounded=0;" edge="1" parent="1">
          <mxGeometry width="50" height="50" relative="1" as="geometry">
            <mxPoint x="700.3" y="450" as="sourcePoint" />
            <mxPoint x="695.3" y="210" as="targetPoint" />
          </mxGeometry>
        </mxCell>
        <mxCell id="AHkwNyY9whoKdCYTfrnO-88" value="" style="endArrow=none;html=1;rounded=0;" edge="1" parent="1">
          <mxGeometry width="50" height="50" relative="1" as="geometry">
            <mxPoint x="700.3" y="450" as="sourcePoint" />
            <mxPoint x="705.3" y="210" as="targetPoint" />
          </mxGeometry>
        </mxCell>
        <mxCell id="AHkwNyY9whoKdCYTfrnO-107" value="" style="endArrow=none;html=1;rounded=0;dashed=1;dashPattern=8 8;strokeColor=#999999;" edge="1" parent="1">
          <mxGeometry width="50" height="50" relative="1" as="geometry">
            <mxPoint x="705.3" y="560" as="sourcePoint" />
            <mxPoint x="705.3" y="210" as="targetPoint" />
          </mxGeometry>
        </mxCell>
        <mxCell id="AHkwNyY9whoKdCYTfrnO-108" value="&lt;span style=&quot;font-size: 10px;&quot;&gt;pulseGlitchMs&lt;/span&gt;" style="text;html=1;align=center;verticalAlign=middle;resizable=0;points=[];autosize=1;strokeColor=none;fillColor=none;" vertex="1" parent="1">
          <mxGeometry x="675.3" y="500" width="90" height="30" as="geometry" />
        </mxCell>
        <mxCell id="AHkwNyY9whoKdCYTfrnO-109" value="" style="endArrow=none;html=1;rounded=0;dashed=1;dashPattern=8 8;strokeColor=#999999;" edge="1" parent="1">
          <mxGeometry width="50" height="50" relative="1" as="geometry">
            <mxPoint x="725.3" y="490" as="sourcePoint" />
            <mxPoint x="725.3" y="210" as="targetPoint" />
          </mxGeometry>
        </mxCell>
        <mxCell id="AHkwNyY9whoKdCYTfrnO-123" value="" style="shape=curlyBracket;whiteSpace=wrap;html=1;rounded=1;labelPosition=left;verticalLabelPosition=middle;align=right;verticalAlign=middle;direction=north;" vertex="1" parent="1">
          <mxGeometry x="705.3" y="500" width="20" height="10" as="geometry" />
        </mxCell>
        <mxCell id="AHkwNyY9whoKdCYTfrnO-125" value="" style="shape=curlyBracket;whiteSpace=wrap;html=1;rounded=1;labelPosition=left;verticalLabelPosition=middle;align=right;verticalAlign=middle;direction=north;" vertex="1" parent="1">
          <mxGeometry x="705.3" y="557.5" width="140" height="10" as="geometry" />
        </mxCell>
        <mxCell id="AHkwNyY9whoKdCYTfrnO-127" value="" style="endArrow=none;html=1;rounded=0;dashed=1;dashPattern=8 8;strokeColor=#999999;" edge="1" parent="1">
          <mxGeometry width="50" height="50" relative="1" as="geometry">
            <mxPoint x="845.3" y="553" as="sourcePoint" />
            <mxPoint x="845.78" y="210" as="targetPoint" />
          </mxGeometry>
        </mxCell>
        <mxCell id="AHkwNyY9whoKdCYTfrnO-131" style="edgeStyle=orthogonalEdgeStyle;rounded=0;orthogonalLoop=1;jettySize=auto;html=1;exitX=1;exitY=0.5;exitDx=0;exitDy=0;" edge="1" parent="1" source="AHkwNyY9whoKdCYTfrnO-128">
          <mxGeometry relative="1" as="geometry">
            <mxPoint x="475.3" y="210" as="targetPoint" />
          </mxGeometry>
        </mxCell>
        <mxCell id="AHkwNyY9whoKdCYTfrnO-128" value="&lt;font style=&quot;font-weight: normal; font-size: 14px;&quot;&gt;1. Status changed to &quot;puls_dialing&quot;&lt;/font&gt;&lt;div&gt;&lt;font style=&quot;font-weight: normal; font-size: 14px;&quot;&gt;2. pulsCountWork = +1&lt;/font&gt;&lt;/div&gt;" style="text;strokeColor=none;fillColor=none;html=1;fontSize=24;fontStyle=1;verticalAlign=middle;align=left;" vertex="1" parent="1">
          <mxGeometry x="232.8" y="120" width="215" height="40" as="geometry" />
        </mxCell>
        <mxCell id="AHkwNyY9whoKdCYTfrnO-129" value="&lt;font style=&quot;font-size: 16px; color: rgb(0, 204, 0);&quot;&gt;Hook OFF&lt;/font&gt;" style="text;html=1;align=center;verticalAlign=middle;resizable=0;points=[];autosize=1;strokeColor=none;fillColor=none;" vertex="1" parent="1">
          <mxGeometry x="75.3" y="180" width="100" height="30" as="geometry" />
        </mxCell>
        <mxCell id="AHkwNyY9whoKdCYTfrnO-133" style="edgeStyle=orthogonalEdgeStyle;rounded=0;orthogonalLoop=1;jettySize=auto;html=1;exitX=1;exitY=0.5;exitDx=0;exitDy=0;" edge="1" parent="1" source="AHkwNyY9whoKdCYTfrnO-132">
          <mxGeometry relative="1" as="geometry">
            <mxPoint x="705.3" y="210" as="targetPoint" />
          </mxGeometry>
        </mxCell>
        <mxCell id="AHkwNyY9whoKdCYTfrnO-132" value="&lt;div&gt;&lt;font style=&quot;font-weight: normal; font-size: 14px;&quot;&gt;pulsCountWork = +1&lt;/font&gt;&lt;/div&gt;" style="text;strokeColor=none;fillColor=none;html=1;fontSize=24;fontStyle=1;verticalAlign=middle;align=left;" vertex="1" parent="1">
          <mxGeometry x="540.3" y="120" width="135" height="40" as="geometry" />
        </mxCell>
        <mxCell id="AHkwNyY9whoKdCYTfrnO-137" style="edgeStyle=orthogonalEdgeStyle;rounded=0;orthogonalLoop=1;jettySize=auto;html=1;" edge="1" parent="1" source="AHkwNyY9whoKdCYTfrnO-136">
          <mxGeometry relative="1" as="geometry">
            <mxPoint x="845.3" y="210" as="targetPoint" />
          </mxGeometry>
        </mxCell>
        <mxCell id="AHkwNyY9whoKdCYTfrnO-136" value="&lt;div&gt;&lt;font style=&quot;font-weight: normal; font-size: 14px;&quot;&gt;DialedDigits = +pulsCoundWork&lt;/font&gt;&lt;/div&gt;" style="text;strokeColor=none;fillColor=none;html=1;fontSize=24;fontStyle=1;verticalAlign=middle;align=left;" vertex="1" parent="1">
          <mxGeometry x="905.3" y="120" width="115" height="40" as="geometry" />
        </mxCell>
      </root>
    </mxGraphModel>
  </diagram>
</mxfile>
